<svg width="54" height="66" viewBox="0 0 54 66" fill="none" xmlns="http://www.w3.org/2000/svg">
<rect x="30" y="24" width="6" height="6" fill="#505050"/>
<rect x="30" y="42" width="6" height="6" fill="#505050"/>
<rect x="42" y="30" width="6" height="6" fill="#505050"/>
<rect x="24" y="30" width="6" height="6" fill="#777777"/>
<rect x="36" y="18" width="6" height="6" fill="#777777"/>
<rect x="48" y="24" width="6" height="6" fill="#777777"/>
<rect x="36" y="36" width="6" height="6" fill="#777777"/>
<rect x="18" y="18" width="6" height="6" fill="#2B2B2B"/>
<rect x="24" y="18" width="6" height="6" fill="#2B2B2B"/>
<rect x="30" y="18" width="6" height="6" fill="#2B2B2B"/>
<rect x="12" y="24" width="6" height="6" fill="#2B2B2B"/>
<rect x="18" y="24" width="6" height="6" fill="#2B2B2B"/>
<rect x="24" y="24" width="6" height="6" fill="#2B2B2B"/>
<rect x="12" y="30" width="6" height="6" fill="#2B2B2B"/>
<rect x="18" y="30" width="6" height="6" fill="#2B2B2B"/>
<rect x="30" y="30" width="6" height="6" fill="#2B2B2B"/>
<rect x="18" y="36" width="6" height="6" fill="#2B2B2B"/>
<rect x="24" y="36" width="6" height="6" fill="#2B2B2B"/>
<rect x="30" y="36" width="6" height="6" fill="#2B2B2B"/>
<rect x="24" y="42" width="6" height="6" fill="#2B2B2B"/>
<rect x="30" y="48" width="6" height="6" fill="#2B2B2B"/>
<rect x="42" y="18" width="6" height="6" fill="#2B2B2B"/>
<rect x="48" y="18" width="6" height="6" fill="#2B2B2B"/>
<rect x="36" y="24" width="6" height="6" fill="#2B2B2B"/>
<rect x="42" y="24" width="6" height="6" fill="#2B2B2B"/>
<rect x="36" y="30" width="6" height="6" fill="#2B2B2B"/>
<rect x="48" y="30" width="6" height="6" fill="#2B2B2B"/>
<rect x="42" y="36" width="6" height="6" fill="#2B2B2B"/>
<rect x="48" y="36" width="6" height="6" fill="#2B2B2B"/>
<rect x="36" y="42" width="6" height="6" fill="#2B2B2B"/>
<rect x="42" y="42" width="6" height="6" fill="#2B2B2B"/>
<rect x="48" y="42" width="6" height="6" fill="#2B2B2B"/>
<rect x="36" y="48" width="6" height="6" fill="#2B2B2B"/>
<rect x="42" y="48" width="6" height="6" fill="#2B2B2B"/>
<rect x="18" y="6" width="6" height="6" fill="white"/>
<rect x="24" y="6" width="6" height="6" fill="white"/>
<rect x="30" y="6" width="6" height="6" fill="white"/>
<rect x="12" y="12" width="6" height="6" fill="white"/>
<rect x="18" y="12" width="6" height="6" fill="white"/>
<rect x="24" y="12" width="6" height="6" fill="white"/>
<rect x="30" y="12" width="6" height="6" fill="white"/>
<rect x="12" y="18" width="6" height="6" fill="white"/>
<rect x="12" y="36" width="6" height="6" fill="white"/>
<rect x="12" y="42" width="6" height="6" fill="white"/>
<rect x="18" y="42" width="6" height="6" fill="white"/>
<rect x="18" y="48" width="6" height="6" fill="white"/>
<rect x="24" y="48" width="6" height="6" fill="white"/>
<rect x="6" y="12" width="6" height="6" fill="#D0D0D0"/>
<rect x="6" y="18" width="6" height="6" fill="#D0D0D0"/>
<rect x="12" y="6" width="6" height="6" fill="#D0D0D0"/>
<rect x="6" y="24" width="6" height="6" fill="#D0D0D0"/>
<rect x="6" y="30" width="6" height="6" fill="#D0D0D0"/>
<rect x="6" y="36" width="6" height="6" fill="#D0D0D0"/>
<rect x="6" y="42" width="6" height="6" fill="#D0D0D0"/>
<rect x="12" y="48" width="6" height="6" fill="#D0D0D0"/>
<rect x="18" y="54" width="6" height="6" fill="#D0D0D0"/>
<rect x="24" y="54" width="6" height="6" fill="white"/>
<rect x="30" y="54" width="6" height="6" fill="white"/>
<rect x="36" y="6" width="6" height="6" fill="white"/>
<rect x="36" y="12" width="6" height="6" fill="white"/>
<rect x="42" y="12" width="6" height="6" fill="white"/>
<rect x="36" y="54" width="6" height="6" fill="white"/>
<rect x="42" y="54" width="6" height="6" fill="white"/>
<rect x="6" y="6" width="6" height="6" fill="#474747"/>
<rect y="12" width="6" height="6" fill="#474747"/>
<rect y="18" width="6" height="6" fill="#474747"/>
<rect x="12" width="6" height="6" fill="#474747"/>
<rect x="18" width="6" height="6" fill="#474747"/>
<rect x="24" width="6" height="6" fill="#474747"/>
<rect x="30" width="6" height="6" fill="#474747"/>
<rect y="24" width="6" height="6" fill="#474747"/>
<rect y="30" width="6" height="6" fill="#474747"/>
<rect y="36" width="6" height="6" fill="#474747"/>
<rect y="42" width="6" height="6" fill="#474747"/>
<rect x="6" y="48" width="6" height="6" fill="#474747"/>
<rect x="12" y="54" width="6" height="6" fill="#474747"/>
<rect x="18" y="60" width="6" height="6" fill="#474747"/>
<rect x="24" y="60" width="6" height="6" fill="#474747"/>
<rect x="30" y="60" width="6" height="6" fill="#474747"/>
<rect x="36" width="6" height="6" fill="#474747"/>
<rect x="42" y="6" width="6" height="6" fill="#474747"/>
<rect x="48" y="12" width="6" height="6" fill="#474747"/>
<rect x="48" y="48" width="6" height="6" fill="#474747"/>
<rect x="48" y="54" width="6" height="6" fill="#474747"/>
<rect x="36" y="60" width="6" height="6" fill="#474747"/>
<rect x="42" y="60" width="6" height="6" fill="#474747"/>
</svg>
